<svg width="256" height="45" viewBox="0 0 256 45" fill="none" xmlns="http://www.w3.org/2000/svg">
<path d="M26.344 2.808L26.536 2.856C27.336 3.336 28.024 3.88 28.6 4.488C29.208 5.064 29.752 5.688 30.232 6.36C30.744 7 31.144 7.704 31.432 8.472C32.648 11.416 31.592 14.712 28.264 18.36C26.856 19.896 25.272 21.208 23.512 22.296C23.96 22.616 24.376 22.856 24.76 23.016C25.176 23.144 25.752 23.416 26.488 23.832C27.224 24.216 27.704 24.968 27.928 26.088C28.152 27.176 28.088 28.408 27.736 29.784C27.416 31.16 26.808 32.584 25.912 34.056C25.048 35.496 23.912 36.792 22.504 37.944C19.304 40.6 15.592 41.72 11.368 41.304C10.76 41.304 10.376 41.256 10.216 41.16C10.056 41.064 9.928 40.984 9.832 40.92C9.736 40.856 9.528 40.808 9.208 40.776C8.408 41.416 7.496 41.816 6.472 41.976C5.448 42.136 4.472 42.056 3.544 41.736C2.648 41.416 1.88 40.872 1.24 40.104C0.632 39.336 0.328 38.328 0.328 37.08C0.424 36.248 0.584 35.592 0.808 35.112C0.712 34.824 0.664 34.472 0.664 34.056C1.752 28.264 2.776 23.832 3.736 20.76C5.688 14.648 7.8 10.04 10.072 6.936C11.928 4.312 14.504 2.616 17.8 1.848C20.968 1.112 23.816 1.432 26.344 2.808ZM11.416 36.312C11.8 36.216 12.12 36.2 12.376 36.264C12.664 36.296 13 36.28 13.384 36.216C14.312 36.12 15.56 35.544 17.128 34.488C18.12 33.496 18.648 32.52 18.712 31.56C18.776 30.6 18.632 29.992 18.28 29.736C17.928 29.448 17.448 29.304 16.84 29.304C16.264 29.304 15.608 29.4 14.872 29.592C14.168 29.752 13.48 29.848 12.808 29.88V29.976C12.648 30.616 12.488 31.176 12.328 31.656C12.168 32.136 12.024 32.6 11.896 33.048C11.608 34.104 11.384 35.192 11.224 36.312H11.416ZM20.344 11.352C19.384 11.224 18.344 11.976 17.224 13.608C16.52 14.632 15.976 16.184 15.592 18.264C16.264 17.976 16.92 17.736 17.56 17.544C18.232 17.32 18.856 17.08 19.432 16.824C20.84 16.216 21.848 15.48 22.456 14.616C23.16 13.784 23.384 13.08 23.128 12.504C22.744 11.992 22.12 11.528 21.256 11.112C21 11.336 20.696 11.416 20.344 11.352ZM19.624 11.16H19.768H19.624ZM49.3821 6.552C48.2621 10.04 47.2221 13.192 46.2621 16.008C45.3341 18.824 44.4701 21.416 43.6701 23.784C42.9021 26.152 42.1821 28.344 41.5101 30.36C40.8381 32.344 40.2141 34.248 39.6381 36.072C39.3181 38.184 38.2781 39.672 36.5181 40.536C35.4941 41.016 34.2781 41.256 32.8701 41.256C31.4621 41.256 30.4061 41.096 29.7021 40.776C28.9981 40.488 28.5501 40.056 28.3581 39.48C28.1341 38.904 28.1341 38.216 28.3581 37.416C28.5501 36.584 28.9021 35.464 29.4141 34.056C29.9261 32.616 30.5661 30.68 31.3341 28.248C32.1341 25.816 32.9661 23.352 33.8301 20.856C35.9741 14.616 37.6701 10.296 38.9181 7.896C39.3981 7 39.8781 6.408 40.3581 6.12C40.8381 5.8 41.3021 5.576 41.7501 5.448C42.1981 5.288 42.6141 5.112 42.9981 4.92C43.3821 4.728 43.7181 4.248 44.0061 3.48C44.3261 2.712 44.8861 2.184 45.6861 1.896C46.5181 1.608 47.2861 1.592 47.9901 1.848C48.7261 2.072 49.2701 2.584 49.6221 3.384C50.0061 4.152 49.9261 5.208 49.3821 6.552ZM49.9671 20.376C50.6071 18.232 51.1191 16.584 51.5031 15.432C51.9191 14.248 52.3191 13.192 52.7031 12.264C53.0871 11.336 53.5191 10.44 53.9991 9.576C54.5111 8.712 55.0551 7.928 55.6311 7.224C56.2391 6.488 56.8791 5.912 57.5511 5.496C58.2231 5.08 58.9271 4.872 59.6631 4.872C60.3991 4.872 61.1671 5.16 61.9671 5.736C63.2471 8.936 64.0311 11.08 64.3191 12.168C64.7031 13.768 65.0551 16.024 65.3751 18.936C65.6631 18.2 65.9831 17.432 66.3351 16.632C66.7191 15.8 67.0871 14.968 67.4391 14.136C68.4311 12.024 69.0551 10.424 69.3111 9.336C70.0151 7.096 71.4711 5.416 73.6791 4.296C75.5991 3.336 77.3911 3.032 79.0551 3.384C79.7271 3.512 80.1911 3.784 80.4471 4.2C80.7351 4.616 80.7351 5.048 80.4471 5.496C80.1911 5.944 80.0951 6.376 80.1591 6.792C80.2551 7.176 80.3351 7.64 80.3991 8.184C80.4951 9.656 80.2391 10.968 79.6311 12.12C79.0231 13.24 78.3991 14.648 77.7591 16.344C77.1191 18.008 76.4631 19.784 75.7911 21.672C75.1511 23.56 74.4951 25.48 73.8231 27.432C73.1511 29.384 72.4951 31.16 71.8551 32.76C70.4471 36.44 69.2951 38.472 68.3991 38.856C67.1831 39.592 66.2871 40.024 65.7111 40.152C64.9751 40.28 63.9351 40.28 62.5911 40.152C61.7591 40.088 61.0391 39.016 60.4311 36.936C60.0791 35.816 59.7591 34.264 59.4711 32.28C58.9591 28.824 58.6071 26.92 58.4151 26.568C57.1351 30.728 56.2231 33.352 55.6791 34.44C55.1671 35.528 54.7671 36.248 54.4791 36.6C54.2231 36.952 53.9031 37.416 53.5191 37.992C53.1031 39.144 52.1111 39.992 50.5431 40.536C49.1991 41.048 47.9831 41.128 46.8951 40.776C45.7111 40.392 45.3591 39.656 45.8391 38.568C46.1911 34.728 47.5671 28.664 49.9671 20.376ZM95.9935 2.76C100.602 1.832 104.186 2.408 106.746 4.488C107.962 5.48 108.762 6.92 109.146 8.808C109.562 10.696 109.354 12.808 108.522 15.144C108.17 16.232 107.562 17.048 106.698 17.592C105.834 18.136 104.938 18.456 104.01 18.552C103.114 18.616 102.298 18.504 101.562 18.216C100.826 17.896 100.426 17.448 100.362 16.872L99.9295 15.912C99.1615 14.76 97.8335 14.616 95.9455 15.48C94.3135 16.216 92.6815 17.496 91.0495 19.32C89.3215 21.272 88.2015 23.032 87.6895 24.6C87.1135 26.328 86.8255 27.464 86.8255 28.008C86.7615 29.224 87.1935 30.312 88.1215 31.272C89.4655 32.136 90.8095 32.536 92.1535 32.472C93.4975 32.376 94.6975 32.072 95.7535 31.56C96.8095 31.016 97.6735 30.408 98.3455 29.736C99.0175 29.064 99.3535 28.584 99.3535 28.296C99.4495 28.104 99.5455 27.912 99.6415 27.72C99.7375 27.528 99.8175 27.336 99.8815 27.144C99.7535 27.144 99.7855 27.144 99.9775 27.144C100.17 27.112 100.218 27.112 100.122 27.144C100.026 27.144 100.074 27.16 100.266 27.192L100.554 27.288C98.9855 28.696 97.4655 28.984 95.9935 28.152C95.4175 27.8 94.9055 27.432 94.4575 27.048C94.0095 26.632 93.5935 26.44 93.2095 26.472C92.5055 26.088 92.3455 25.336 92.7295 24.216C92.8895 23.768 93.1775 23.352 93.5935 22.968C94.0415 22.552 94.6015 22.264 95.2735 22.104C98.4735 20.728 101.434 20.408 104.154 21.144C105.37 21.464 106.202 22.12 106.65 23.112C107.13 24.072 107.338 25.16 107.274 26.376C107.21 27.592 106.938 28.824 106.458 30.072C106.01 31.32 105.514 32.328 104.97 33.096C104.426 33.832 103.658 34.712 102.666 35.736C101.706 36.76 100.49 37.752 99.0175 38.712C95.4015 41.048 91.5295 42.168 87.4015 42.072C81.4175 41.976 77.8815 39.528 76.7935 34.728C76.4415 33.192 76.2815 31.464 76.3135 29.544C76.6335 23.976 78.2975 18.776 81.3055 13.944C82.7455 11.64 84.6815 9.368 87.1135 7.128C88.6495 5.752 90.3775 4.696 92.2975 3.96C93.3215 3.544 94.5535 3.144 95.9935 2.76ZM117.338 7.224C119.354 4.92 121.594 3.48 124.058 2.904C125.754 2.488 127.354 2.552 128.858 3.096C130.042 1.848 131.578 1.4 133.466 1.752C135.194 2.072 136.666 3.048 137.882 4.68C137.946 4.904 138.074 5.24 138.266 5.688C138.49 6.136 138.698 6.632 138.89 7.176C140.298 10.44 140.41 14.728 139.226 20.04C137.754 26.632 135.146 32.216 131.402 36.792C130.25 38.2 128.954 39.368 127.514 40.296C125.21 42.056 122.458 42.84 119.258 42.648C117.274 42.552 115.61 42.056 114.266 41.16C108.922 38.504 107.178 32.968 109.034 24.552C110.57 17.64 113.338 11.864 117.338 7.224ZM117.914 32.712L117.866 33L117.962 33.528C118.154 34.52 118.474 35.288 118.922 35.832C119.37 36.344 119.738 36.664 120.026 36.792C120.346 36.536 120.666 36.296 120.986 36.072C121.306 35.848 121.594 35.576 121.85 35.256C124.026 32.568 125.722 29.048 126.938 24.696C128.154 20.344 128.602 16.312 128.282 12.6C127.034 14.2 125.722 16.04 124.346 18.12C122.97 20.2 121.882 21.976 121.082 23.448C119.258 26.872 118.202 29.96 117.914 32.712ZM147.994 7.224C150.01 4.92 152.25 3.48 154.714 2.904C156.41 2.488 158.01 2.552 159.514 3.096C160.698 1.848 162.234 1.4 164.122 1.752C165.85 2.072 167.322 3.048 168.538 4.68C168.602 4.904 168.73 5.24 168.922 5.688C169.146 6.136 169.354 6.632 169.546 7.176C170.954 10.44 171.066 14.728 169.882 20.04C168.41 26.632 165.802 32.216 162.058 36.792C160.906 38.2 159.61 39.368 158.17 40.296C155.866 42.056 153.114 42.84 149.914 42.648C147.93 42.552 146.266 42.056 144.922 41.16C139.578 38.504 137.834 32.968 139.69 24.552C141.226 17.64 143.994 11.864 147.994 7.224ZM148.57 32.712L148.522 33L148.618 33.528C148.81 34.52 149.13 35.288 149.578 35.832C150.026 36.344 150.394 36.664 150.682 36.792C151.002 36.536 151.322 36.296 151.642 36.072C151.962 35.848 152.25 35.576 152.506 35.256C154.682 32.568 156.378 29.048 157.594 24.696C158.81 20.344 159.258 16.312 158.938 12.6C157.69 14.2 156.378 16.04 155.002 18.12C153.626 20.2 152.538 21.976 151.738 23.448C149.914 26.872 148.858 29.96 148.57 32.712ZM178.65 7.224C180.666 4.92 182.906 3.48 185.37 2.904C187.066 2.488 188.666 2.552 190.17 3.096C191.354 1.848 192.89 1.4 194.778 1.752C196.506 2.072 197.978 3.048 199.194 4.68C199.258 4.904 199.386 5.24 199.578 5.688C199.802 6.136 200.01 6.632 200.202 7.176C201.61 10.44 201.722 14.728 200.538 20.04C199.066 26.632 196.458 32.216 192.714 36.792C191.562 38.2 190.266 39.368 188.826 40.296C186.522 42.056 183.77 42.84 180.57 42.648C178.586 42.552 176.922 42.056 175.578 41.16C170.234 38.504 168.49 32.968 170.346 24.552C171.882 17.64 174.65 11.864 178.65 7.224ZM179.226 32.712L179.178 33L179.274 33.528C179.466 34.52 179.786 35.288 180.234 35.832C180.682 36.344 181.05 36.664 181.338 36.792C181.658 36.536 181.978 36.296 182.298 36.072C182.618 35.848 182.906 35.576 183.162 35.256C185.338 32.568 187.034 29.048 188.25 24.696C189.466 20.344 189.914 16.312 189.594 12.6C188.346 14.2 187.034 16.04 185.658 18.12C184.282 20.2 183.194 21.976 182.394 23.448C180.57 26.872 179.514 29.96 179.226 32.712ZM237.124 4.392C237.252 4.776 237.396 5.048 237.556 5.208C237.716 5.336 237.828 5.432 237.892 5.496C238.052 5.656 237.972 5.944 237.652 6.36C237.364 6.936 236.964 7.608 236.452 8.376C235.524 9.752 234.932 10.76 234.676 11.4C233.364 14.024 232.34 16.44 231.604 18.648C230.868 20.824 230.244 22.792 229.732 24.552C229.22 26.312 228.724 27.864 228.244 29.208C227.668 30.776 226.996 31.944 226.228 32.712C225.844 33.352 225.156 33.784 224.164 34.008C223.172 34.232 222.164 34.28 221.14 34.152C220.116 33.992 219.236 33.656 218.5 33.144C217.796 32.632 217.54 31.96 217.732 31.128C218.084 28.12 218.612 25.592 219.316 23.544C220.052 21.496 220.676 19.8 221.188 18.456C221.732 17.112 222.196 15.912 222.58 14.856C222.964 13.768 223.316 12.84 223.636 12.072C223.988 11.272 224.388 10.44 224.836 9.576C225.284 8.68 225.764 7.784 226.276 6.888C226.82 5.96 227.364 5.112 227.908 4.344C229.156 2.584 230.212 1.544 231.076 1.224C231.94 0.871998 232.804 0.663999 233.668 0.599999C234.564 0.535998 235.332 0.631998 235.972 0.887999C236.644 1.144 237.108 1.56 237.364 2.136C237.62 2.712 237.54 3.464 237.124 4.392ZM225.652 40.584C225.3 41.896 224.564 42.872 223.444 43.512C222.356 44.184 221.188 44.536 219.94 44.568C218.692 44.632 217.524 44.392 216.436 43.848C215.38 43.336 214.724 42.52 214.468 41.4C214.18 40.312 214.34 39.384 214.948 38.616C215.588 37.816 216.34 37.304 217.204 37.08C218.068 36.824 219.076 36.648 220.228 36.552C221.412 36.456 222.484 36.52 223.444 36.744C224.404 36.968 225.14 37.384 225.652 37.992C226.164 38.6 226.164 39.464 225.652 40.584ZM254.889 4.392C255.017 4.776 255.161 5.048 255.321 5.208C255.481 5.336 255.593 5.432 255.657 5.496C255.817 5.656 255.737 5.944 255.417 6.36C255.129 6.936 254.729 7.608 254.217 8.376C253.289 9.752 252.697 10.76 252.441 11.4C251.129 14.024 250.105 16.44 249.369 18.648C248.633 20.824 248.009 22.792 247.497 24.552C246.985 26.312 246.489 27.864 246.009 29.208C245.433 30.776 244.761 31.944 243.993 32.712C243.609 33.352 242.921 33.784 241.929 34.008C240.937 34.232 239.929 34.28 238.905 34.152C237.881 33.992 237.001 33.656 236.265 33.144C235.561 32.632 235.305 31.96 235.497 31.128C235.849 28.12 236.377 25.592 237.081 23.544C237.817 21.496 238.441 19.8 238.953 18.456C239.497 17.112 239.961 15.912 240.345 14.856C240.729 13.768 241.081 12.84 241.401 12.072C241.753 11.272 242.153 10.44 242.601 9.576C243.049 8.68 243.529 7.784 244.041 6.888C244.585 5.96 245.129 5.112 245.673 4.344C246.921 2.584 247.977 1.544 248.841 1.224C249.705 0.871998 250.569 0.663999 251.433 0.599999C252.329 0.535998 253.097 0.631998 253.737 0.887999C254.409 1.144 254.873 1.56 255.129 2.136C255.385 2.712 255.305 3.464 254.889 4.392ZM243.417 40.584C243.065 41.896 242.329 42.872 241.209 43.512C240.121 44.184 238.953 44.536 237.705 44.568C236.457 44.632 235.289 44.392 234.201 43.848C233.145 43.336 232.489 42.52 232.233 41.4C231.945 40.312 232.105 39.384 232.713 38.616C233.353 37.816 234.105 37.304 234.969 37.08C235.833 36.824 236.841 36.648 237.993 36.552C239.177 36.456 240.249 36.52 241.209 36.744C242.169 36.968 242.905 37.384 243.417 37.992C243.929 38.6 243.929 39.464 243.417 40.584Z" fill="#FFE924"/>
</svg>
